<svg xmlns="http://www.w3.org/2000/svg" version="1.1" xmlns:xlink="http://www.w3.org/1999/xlink" xmlns:svgjs="http://svgjs.dev/svgjs" width="1000" height="1000" viewBox="0 0 1000 1000"><rect width="1000" height="1000" fill="#000000"></rect><g transform="matrix(0.7,0,0,0.7,149.57575775777838,387.5831219290759)"><svg viewBox="0 0 396 127" data-background-color="#ffffff" preserveAspectRatio="xMidYMid meet" height="320" width="1000" xmlns="http://www.w3.org/2000/svg" xmlns:xlink="http://www.w3.org/1999/xlink"><g id="tight-bounds" transform="matrix(1,0,0,1,0.24000010297186236,0.23635497771144287)"><svg viewBox="0 0 395.52 126.5272900445771" height="126.5272900445771" width="395.52"><g><svg viewBox="0 0 632.7339019968558 202.41228241048037" height="126.5272900445771" width="395.52"><g transform="matrix(1,0,0,1,0,27.97449055021835)"><svg viewBox="0 0 395.52 146.46330131004368" height="146.46330131004368" width="395.52"><g><svg viewBox="0 0 395.52 146.46330131004368" height="146.46330131004368" width="395.52"><g><svg viewBox="0 0 395.52 146.46330131004368" height="146.46330131004368" width="395.52"><g transform="matrix(1,0,0,1,0,0)"><svg width="395.52" viewBox="1.9000000953674316 -33.20000076293945 114.48999786376953 42.400001525878906" height="146.46330131004368" data-palette-color="#202046"><path d="M15 0.6L15 0.6Q12.1 0.6 9.68-0.5 7.25-1.6 5.53-3.75 3.8-5.9 2.85-9.08 1.9-12.25 1.9-16.45L1.9-16.45Q1.9-20.55 2.85-23.68 3.8-26.8 5.53-28.93 7.25-31.05 9.68-32.13 12.1-33.2 15-33.2L15-33.2Q17.9-33.2 20.33-32.13 22.75-31.05 24.48-28.93 26.2-26.8 27.15-23.68 28.1-20.55 28.1-16.45L28.1-16.45Q28.1-12.25 27.15-9.08 26.2-5.9 24.48-3.75 22.75-1.6 20.33-0.5 17.9 0.6 15 0.6ZM15-5.75L15-5.75Q17.55-5.75 19.05-8.45 20.55-11.15 20.55-16.45L20.55-16.45Q20.55-21.55 19.05-24.2 17.55-26.85 15-26.85L15-26.85Q12.45-26.85 10.95-24.2 9.45-21.55 9.45-16.45L9.45-16.45Q9.45-11.15 10.95-8.45 12.45-5.75 15-5.75ZM41.15 0.6L41.15 0.6Q36.9 0.6 35-2.1 33.1-4.8 33.1-9.5L33.1-9.5 33.1-24.8 40.45-24.8 40.45-10.45Q40.45-7.95 41.2-6.8 41.95-5.65 44.05-5.65L44.05-5.65Q45.45-5.65 46.52-6.25 47.6-6.85 48.9-8.5L48.9-8.5 48.9-24.8 56.25-24.8 56.25 0 50.25 0 49.7-3.55 49.5-3.55Q47.85-1.65 45.85-0.53 43.85 0.6 41.15 0.6ZM79.4 0.6L79.4 0.6Q76.45 0.6 74.4-0.2 72.34-1 71.07-2.43 69.8-3.85 69.25-5.85 68.7-7.85 68.7-10.3L68.7-10.3 68.7-19.05 62.45-19.05 62.45-24.5 69.05-24.8 70-32.4 76.05-32.4 76.05-24.8 86.55-24.8 86.55-19.05 76.05-19.05 76.05-10.35Q76.05-7.5 77.3-6.33 78.55-5.15 81.3-5.15L81.3-5.15Q82.7-5.15 83.87-5.4 85.05-5.65 86.2-6.05L86.2-6.05 87.5-0.75Q85.84-0.25 83.87 0.18 81.9 0.6 79.4 0.6ZM116.39 9.2L109.04 9.2 109.04 1.75 109.39-2.25 109.19-2.25Q107.94-1 106.24-0.2 104.54 0.6 102.79 0.6L102.79 0.6Q100.44 0.6 98.52-0.3 96.59-1.2 95.22-2.88 93.84-4.55 93.09-6.95 92.34-9.35 92.34-12.4L92.34-12.4Q92.34-15.45 93.24-17.85 94.14-20.25 95.62-21.93 97.09-23.6 98.99-24.5 100.89-25.4 102.94-25.4L102.94-25.4Q105.04-25.4 106.67-24.65 108.29-23.9 109.84-22.25L109.84-22.25 110.04-22.25 110.64-24.8 116.39-24.8 116.39 9.2ZM104.69-5.4L104.69-5.4Q105.94-5.4 106.99-5.93 108.04-6.45 109.04-7.7L109.04-7.7 109.04-17.75Q108.04-18.65 107.02-19.03 105.99-19.4 104.89-19.4L104.89-19.4Q102.84-19.4 101.37-17.7 99.89-16 99.89-12.5L99.89-12.5Q99.89-8.8 101.14-7.1 102.39-5.4 104.69-5.4Z" opacity="1" transform="matrix(1,0,0,1,0,0)" fill="#ffffff" class="undefined-text-0" data-fill-palette-color="primary" id="text-0"></path></svg></g></svg></g></svg></g></svg></g><g transform="matrix(1,0,0,1,430.09647032006984,0)"><svg viewBox="0 0 202.6374316767859 202.41228241048037" height="202.41228241048037" width="202.6374316767859"><g><svg xmlns="http://www.w3.org/2000/svg" xmlns:xlink="http://www.w3.org/1999/xlink" version="1.1" x="0" y="0" viewBox="5 5 90 89.9000015258789" enable-background="new 0 0 100 100" xml:space="preserve" height="202.41228241048037" width="202.6374316767859" class="icon-icon-0" data-fill-palette-color="accent" id="icon-0"><g fill="#fe633d" data-fill-palette-color="accent"><path d="M32 21.5c0 2.5-2 4.5-4.5 4.5S23 24 23 21.5v-12C23 7 25 5 27.5 5S32 7 32 9.5V21.5zM76 9.5C76 7 74 5 71.5 5S67 7 67 9.5v12c0 2.5 2 4.5 4.5 4.5s4.5-2 4.5-4.5V9.5zM95 20.9v69.1c0 2.7-2.2 4.9-5 4.9H10c-2.8 0-5-2.2-5-4.9V20.9c0-2.7 2.2-4.9 5-4.9h10v5.5c0 4.3 3.2 7.7 7.5 7.7s7.5-3.5 7.5-7.7V16h29v5.5c0 4.3 3.2 7.7 7.5 7.7s7.5-3.5 7.5-7.7V16h10.9C92.6 16 95 18.2 95 20.9zM87 38.9c0-1-0.9-1.9-2-1.9H15c-1.1 0-2 0.8-2 1.9v46.2c0 1 0.9 1.9 2 1.9h70c1.1 0 2-0.8 2-1.9V38.9z" fill="#ffffff" data-fill-palette-color="accent"></path></g></svg></g></svg></g></svg></g><defs></defs></svg><rect width="395.52" height="126.5272900445771" fill="none" stroke="none" visibility="hidden"></rect></g></svg></g></svg>